<!DOCTYPE svg PUBLIC "-//W3C//DTD SVG 1.1//EN" "http://www.w3.org/Graphics/SVG/1.1/DTD/svg11.dtd">
<!-- Uploaded to: SVG Repo, www.svgrepo.com, Transformed by: SVG Repo Mixer Tools -->
<svg height="64px" width="64px" version="1.1" id="Layer_1" xmlns="http://www.w3.org/2000/svg" xmlns:xlink="http://www.w3.org/1999/xlink" viewBox="0 0 512 512" xml:space="preserve" fill="#000000">
<g id="SVGRepo_bgCarrier" stroke-width="0"/>
<g id="SVGRepo_tracerCarrier" stroke-linecap="round" stroke-linejoin="round"/>
<g id="SVGRepo_iconCarrier"> <path style="fill:#FF6638;" d="M256,8.17L179.745,256L256,503.83c136.873,0,247.83-110.957,247.83-247.83S392.873,8.17,256,8.17z"/> <path style="fill:#FF883E;" d="M8.17,256c0,136.873,110.957,247.83,247.83,247.83V8.17C119.127,8.17,8.17,119.127,8.17,256z"/> <path style="fill:#FFAB58;" d="M258.353,40.873v430.254c117.553-1.253,212.796-97.28,212.796-215.127S375.906,42.126,258.353,40.873 z"/> <path style="fill:#FFCD71;" d="M258.353,40.873C357.888,42.365,438.468,138.294,438.468,256s-80.58,213.635-180.115,215.127 c-0.784,0.011-1.569,0.022-2.353,0.022c-118.631,0-215.149-96.517-215.149-215.149S137.368,40.851,256,40.851 C256.784,40.851,257.569,40.862,258.353,40.873z"/> <path style="fill:#FF6638;" d="M371.128,334.958c3.833-5.468,6.218-11.509,7.228-17.691L256,254.346l41.823,76.676 c3.093,5.612,7.466,10.635,13.077,14.555C330.464,359.283,357.423,354.523,371.128,334.958z"/> <path style="fill:#FF883E;" d="M377.345,298.512c1.698,6.067,2.064,12.483,1.011,18.754c-0.381,0.475-0.815,0.932-1.289,1.375 c-9.935,9.205-34.658,7.824-55.233-3.108c-5.897-3.132-10.8-6.702-14.582-10.42L256,254.346l90.491-1.842L377.345,298.512z"/> <path style="fill:#FFAB58;" d="M377.345,298.512L256,254.346l81.324-31.854c5.976-2.311,12.556-3.348,19.373-2.744 c23.797,2.077,41.389,23.052,39.312,46.849C394.837,280.013,387.659,291.451,377.345,298.512z"/> <path style="fill:#FF6638;" d="M140.872,334.958c-3.833-5.468-6.218-11.509-7.228-17.691L256,254.346l-41.823,76.676 c-3.093,5.612-7.466,10.635-13.077,14.555C181.536,359.283,154.577,354.523,140.872,334.958z"/> <path style="fill:#FF883E;" d="M134.655,298.512c-1.698,6.067-2.064,12.483-1.011,18.754c0.381,0.475,0.815,0.932,1.289,1.375 c9.935,9.205,34.658,7.824,55.233-3.108c5.897-3.132,10.8-6.702,14.582-10.42L256,254.346l-90.491-1.842L134.655,298.512z"/> <path style="fill:#FFAB58;" d="M134.655,298.512L256,254.346l-81.324-31.854c-5.976-2.311-12.556-3.348-19.373-2.744 c-23.797,2.077-41.389,23.052-39.312,46.849C117.163,280.013,124.341,291.451,134.655,298.512z"/> <path style="fill:#FF6638;" d="M292.374,118.59c-6.449-1.732-12.942-1.906-19.096-0.741L256,254.346l57.747-65.525 c4.216-4.826,7.44-10.654,9.205-17.266C329.14,148.482,315.446,124.778,292.374,118.59z"/> <path style="fill:#FF883E;" d="M256,125.213c5.12-3.671,11.024-6.209,17.277-7.364c0.577,0.196,1.155,0.447,1.732,0.741 c12.048,6.188,19.205,29.892,15.97,52.965c-0.926,6.612-2.604,12.441-4.804,17.266L256,254.346l-32.681-84.404L256,125.213z"/> <path style="fill:#FFAB58;" d="M256,125.213v129.133l-57.747-65.525c-4.216-4.826-7.44-10.654-9.205-17.266 c-6.188-23.073,7.506-46.777,30.578-52.965C232.633,115.104,245.836,117.936,256,125.213z"/> <path d="M437.019,74.981C388.667,26.628,324.38,0,256,0S123.333,26.628,74.981,74.981C26.628,123.332,0,187.62,0,256 s26.628,132.668,74.981,181.019C123.333,485.372,187.62,512,256,512s132.667-26.628,181.019-74.981 C485.372,388.668,512,324.38,512,256S485.372,123.332,437.019,74.981z M256,495.66c-132.149,0-239.66-107.51-239.66-239.66 S123.851,16.34,256,16.34S495.66,123.851,495.66,256S388.149,495.66,256,495.66z"/> <path d="M107.851,267.308c1.181,13.497,7.55,25.8,17.71,34.515c-2.181,13.206,0.848,26.725,8.619,37.823 c9.613,13.73,25.371,21.927,42.153,21.928c10.579,0,20.763-3.217,29.453-9.302c6.506-4.555,11.737-10.381,15.563-17.339 l26.481-48.547v23.561c0,29.834,4.515,59.244,13.418,87.41c1.101,3.483,4.319,5.709,7.788,5.709c0.816,0,1.646-0.123,2.465-0.382 c4.302-1.361,6.688-5.95,5.328-10.253c-8.4-26.572-12.658-54.323-12.658-82.484v-23.56l26.493,48.571 c3.813,6.934,9.045,12.76,15.55,17.314c8.691,6.085,18.875,9.302,29.452,9.302c16.782,0,32.54-8.197,42.154-21.928 c7.772-11.098,10.8-24.617,8.619-37.823c10.159-8.715,16.529-21.018,17.71-34.515c2.472-28.242-18.496-53.228-46.738-55.7 c-7.865-0.687-15.709,0.425-23.067,3.279l-49.903,19.546l35.454-40.23c5.21-5.953,8.896-12.862,10.951-20.533 c7.337-27.384-8.972-55.632-36.355-62.969c-4.364-1.17-8.85-1.763-13.332-1.763c-8.884,0-17.48,2.266-25.159,6.596 c-7.679-4.33-16.274-6.596-25.159-6.596c-4.482,0-8.968,0.593-13.332,1.763c-27.383,7.338-43.692,35.586-36.355,62.971 c2.056,7.671,5.741,14.579,10.969,20.555l35.435,40.208l-49.927-19.557c-7.328-2.842-15.177-3.957-23.041-3.268 C126.346,214.079,105.379,239.066,107.851,267.308z M340.277,230.111c4.996-1.937,10.341-2.696,15.71-2.224 c9.333,0.817,17.789,5.219,23.811,12.395c6.021,7.177,8.888,16.27,8.071,25.602c-0.917,10.492-6.435,19.928-15.138,25.891 c-2.884,1.976-4.191,5.568-3.252,8.935c2.835,10.162,0.995,20.936-5.046,29.564c-6.559,9.367-17.314,14.96-28.769,14.96 c-7.206,0-14.15-2.195-20.08-6.348c-4.438-3.108-8.007-7.079-10.591-11.777l-37.384-68.536L340.277,230.111z M196.937,169.44 c-5.006-18.681,6.121-37.951,24.803-42.958c2.985-0.8,6.048-1.205,9.102-1.205c7.336,0,14.393,2.273,20.404,6.575 c2.842,2.034,6.666,2.034,9.509,0c6.012-4.302,13.068-6.575,20.404-6.575c3.055,0,6.117,0.405,9.102,1.206 c18.68,5.006,29.806,24.275,24.803,42.957c-1.403,5.234-3.914,9.945-7.446,13.98L256,241.99l-51.599-58.549 C200.851,179.385,198.34,174.674,196.937,169.44z M132.201,240.282c6.022-7.177,14.479-11.579,23.811-12.395 c1.027-0.09,2.068-0.136,3.094-0.136c4.332,0,8.577,0.794,12.591,2.351l72.692,28.473l-37.372,68.511 c-2.597,4.723-6.165,8.694-10.603,11.802c-5.93,4.153-12.872,6.347-20.078,6.347c-11.458,0-22.213-5.593-28.771-14.96 c-6.041-8.627-7.879-19.403-5.046-29.564c0.938-3.367-0.368-6.959-3.252-8.935c-8.702-5.963-14.221-15.399-15.138-25.892 C123.312,256.55,126.18,247.458,132.201,240.282z"/> <path d="M256,32.681C132.862,32.681,32.681,132.861,32.681,256c0,53.286,19.16,104.921,53.948,145.392 c2.941,3.423,8.102,3.81,11.521,0.869c3.423-2.941,3.812-8.1,0.87-11.522c-32.242-37.508-50-85.359-50-134.739 c0-114.128,92.85-206.979,206.979-206.979S462.979,141.872,462.979,256S370.129,462.979,256,462.979 c-49.38,0-97.232-17.757-134.741-50c-3.421-2.94-8.579-2.552-11.521,0.869c-2.941,3.422-2.552,8.58,0.87,11.522 c40.471,34.79,92.106,53.948,145.392,53.948c123.138,0,223.319-100.18,223.319-223.319S379.138,32.681,256,32.681z"/> <circle cx="256" cy="73.532" r="8.17"/> <circle cx="208.776" cy="79.752" r="8.17"/> <circle cx="164.766" cy="97.977" r="8.17"/> <circle cx="126.976" cy="126.976" r="8.17"/> <circle cx="97.977" cy="164.766" r="8.17"/> <circle cx="79.752" cy="208.776" r="8.17"/> <circle cx="73.532" cy="256" r="8.17"/> <circle cx="79.752" cy="303.224" r="8.17"/> <circle cx="97.977" cy="347.234" r="8.17"/> <circle cx="126.976" cy="385.024" r="8.17"/> <circle cx="164.766" cy="414.023" r="8.17"/> <circle cx="208.776" cy="432.248" r="8.17"/> <circle cx="256" cy="438.468" r="8.17"/> <circle cx="303.224" cy="432.248" r="8.17"/> <circle cx="347.234" cy="414.023" r="8.17"/> <circle cx="385.024" cy="385.024" r="8.17"/> <circle cx="414.023" cy="347.234" r="8.17"/> <circle cx="432.248" cy="303.224" r="8.17"/> <circle cx="438.468" cy="256" r="8.17"/> <circle cx="432.248" cy="208.776" r="8.17"/> <circle cx="414.023" cy="164.766" r="8.17"/> <circle cx="385.024" cy="126.976" r="8.17"/> <circle cx="347.234" cy="97.977" r="8.17"/> <circle cx="303.224" cy="79.752" r="8.17"/> </g>
</svg>